# xmcd
#
# Track frame offsets: 
#        150
#        16520
#        39695
#        51542
#        61404
#        77612
#        90178
#        106548
#        126390
#        137476
#        148143
#        161103
#        168985
#        184292
#        196374
#        214430
#        228557
#        245299
#        261310
#        280437
#
# Disc length: 3973 seconds
#
# Revision: 0
# Processed by: cddbd v1.5.2PL0 Copyright (c) Steve Scherf et al.
# Submitted via: ExactAudioCopy v1.3
#
DISCID=230f8314
DTITLE=Various Artist - 101 Country And Irish Cd2
DYEAR=1900
DGENRE=Celtic
TTITLE0=Pat McKenna - the Wind On The Hill
TTITLE1=The Morrisseys - The Old Rustic Bridge
TTITLE2=Brendan Quinn - Ravishing Ruby
TTITLE3=Gene Stuart - before The Next Teardrop Falls
TTITLE4=Sean Dunphy - Pal Of My Cradle Days
TTITLE5=Susan McCann - What I'v Got In Mind
TTITLE6=Tony Kenny - Always On My Mind
TTITLE7=Kenny Paul - Dance The Night Away
TTITLE8=Sean Wilson - Sentemental Irish
TTITLE9=Dermot O'Brian - westmeath Bachelor
TTITLE10=Johnny McEvoy - Someday You Can Call My Name
TTITLE11=The Cotton Mill Boys - Foggy Mountain Breakdown
TTITLE12=Sonny Knowles - For The Good Times
TTITLE13=tracy And The Grassroots - Paper Roses
TTITLE14=Chris Ball - My Lovely Rose Of Clare
TTITLE15=Barleycorn - When We Danced To An Old fashioned Tune
TTITLE16=Dermot O'Brian - North To Alaska
TTITLE17=Roly Daniels - My Life 
TTITLE18=Johnny McEvoy - You Seldom Come To See Me
TTITLE19=Na Fianna - wagon Wheel
EXTD=
EXTT0=
EXTT1=
EXTT2=
EXTT3=
EXTT4=
EXTT5=
EXTT6=
EXTT7=
EXTT8=
EXTT9=
EXTT10=
EXTT11=
EXTT12=
EXTT13=
EXTT14=
EXTT15=
EXTT16=
EXTT17=
EXTT18=
EXTT19=
PLAYORDER=
